<?xml version="1.0" encoding="UTF-8"?>
<svg xmlns="http://www.w3.org/2000/svg" xmlns:xlink="http://www.w3.org/1999/xlink" width="207.67pt" height="155pt" viewBox="0 0 207.67 155" version="1.1">
<g id="surface1">
<path style=" stroke:none;fill-rule:nonzero;fill:rgb(100%,100%,100%);fill-opacity:1;" d="M 183.941406 31.160156 C 183.578125 31.101563 183.214844 31.046875 182.855469 31.007813 C 182.898438 31.011719 182.941406 31.011719 182.984375 31.015625 C 183.300781 31.054688 183.621094 31.105469 183.941406 31.160156 Z M 202.757813 58.195313 C 202.324219 57.078125 199.882813 51.273438 194.1875 46.890625 C 190.898438 44.359375 186.425781 42.59375 181.914063 42.050781 C 181.136719 41.960938 180.363281 41.902344 179.613281 41.886719 C 172.71875 41.738281 165.117188 46.289063 164.269531 46.808594 C 163.273438 47.421875 162.511719 48.285156 162.023438 49.269531 C 161.839844 49.484375 161.675781 49.710938 161.527344 49.941406 C 159.839844 51.382813 159.089844 53.632813 159.539063 55.773438 C 158.523438 56.78125 157.527344 57.902344 156.605469 59.117188 C 154.984375 57.816406 153.023438 56.933594 150.839844 56.671875 L 150.746094 56.660156 C 149.464844 56.507813 148.191406 56.585938 146.964844 56.859375 L 147.621094 47.117188 C 147.734375 45.460938 147.15625 43.832031 146.03125 42.609375 C 145.050781 41.550781 143.730469 40.878906 142.3125 40.710938 C 142.097656 40.683594 141.882813 40.667969 141.664063 40.667969 L 128.058594 40.496094 C 126.453125 40.476563 124.90625 41.097656 123.757813 42.214844 C 123.265625 42.695313 122.863281 43.253906 122.5625 43.855469 C 122.382813 44.070313 122.21875 44.296875 122.066406 44.53125 C 121.96875 44.613281 121.871094 44.703125 121.777344 44.796875 C 120.628906 45.917969 119.972656 47.449219 119.949219 49.050781 L 119.636719 75.953125 L 117.574219 76.121094 L 115.449219 47.351563 C 115.328125 45.695313 114.53125 44.160156 113.242188 43.113281 C 112.347656 42.382813 111.269531 41.929688 110.140625 41.796875 C 109.648438 41.734375 109.144531 41.734375 108.644531 41.800781 L 94.148438 43.675781 C 92.90625 43.835938 91.808594 44.367188 90.9375 45.132813 C 90.5625 45.011719 90.179688 44.914063 89.789063 44.867188 C 89.195313 44.796875 88.589844 44.8125 87.988281 44.921875 C 87.421875 45.027344 74.070313 47.449219 69.796875 48.363281 C 65.339844 49.3125 53.542969 52.242188 53.042969 52.367188 C 52.503906 52.5 51.992188 52.710938 51.519531 52.980469 C 51.089844 52.570313 50.59375 52.226563 50.046875 51.957031 C 49.429688 51.652344 48.765625 51.457031 48.09375 51.375 C 47.195313 51.265625 46.277344 51.359375 45.40625 51.660156 L 26.34375 58.222656 C 24.839844 58.742188 23.601563 59.832031 22.898438 61.253906 C 22.714844 61.464844 22.550781 61.691406 22.402344 61.925781 C 21.722656 62.503906 21.179688 63.230469 20.808594 64.058594 C 20.125 65.589844 20.109375 67.339844 20.765625 68.882813 L 32.816406 97.277344 C 32.195313 96.96875 31.53125 96.773438 30.851563 96.691406 C 29.453125 96.523438 27.992188 96.839844 26.746094 97.683594 L 11.316406 108.105469 C 10.449219 108.691406 9.761719 109.488281 9.304688 110.410156 C 9.121094 110.625 8.957031 110.851563 8.804688 111.089844 C 7.675781 112.046875 6.933594 113.386719 6.730469 114.867188 C 6.496094 116.566406 6.992188 118.285156 8.097656 119.597656 C 8.554688 120.136719 12.707031 124.921875 18.753906 127.578125 C 21.226563 128.660156 24.0625 129.398438 27.195313 129.773438 C 30.285156 130.144531 33.558594 130.125 35.953125 129.71875 C 40.175781 128.996094 45.175781 127.90625 51.09375 124.085938 C 54.023438 122.195313 56.640625 119.882813 58.6875 117.382813 C 59.644531 116.351563 60.496094 115.292969 61.21875 114.234375 C 61.457031 113.886719 61.65625 113.566406 61.832031 113.28125 C 61.902344 113.1875 61.972656 113.089844 62.035156 112.996094 C 62.289063 112.625 62.515625 112.253906 62.746094 111.882813 C 63.449219 112.285156 64.222656 112.558594 65.039063 112.65625 C 65.808594 112.75 66.609375 112.691406 67.402344 112.46875 L 95.28125 104.589844 C 96.03125 104.375 96.710938 104.027344 97.296875 103.578125 C 97.34375 103.585938 97.386719 103.597656 97.429688 103.605469 C 97.976563 103.667969 98.535156 103.660156 99.089844 103.574219 L 123.140625 99.800781 C 123.574219 99.730469 123.992188 99.617188 124.386719 99.464844 C 124.511719 99.484375 124.628906 99.523438 124.753906 99.539063 C 125.074219 99.578125 125.394531 99.589844 125.71875 99.578125 L 148.316406 98.660156 C 150.351563 98.582031 152.140625 97.492188 153.175781 95.867188 C 153.789063 95.339844 154.296875 94.691406 154.660156 93.957031 C 154.664063 93.953125 154.667969 93.945313 154.671875 93.941406 C 158.023438 98.1875 162.285156 100.832031 163.574219 101.4375 C 164.203125 101.734375 167.554688 103.226563 171.976563 103.757813 C 174.695313 104.085938 177.277344 103.980469 179.652344 103.445313 C 186.691406 101.859375 192.847656 96.527344 194.449219 94.78125 C 194.683594 94.527344 194.949219 94.210938 195.246094 93.820313 C 195.390625 93.679688 195.515625 93.550781 195.625 93.429688 C 196.328125 92.660156 197.269531 91.371094 198.214844 89.882813 C 199.757813 87.636719 203.289063 81.96875 204.507813 75.570313 C 206.066406 67.386719 203.320313 59.660156 202.757813 58.195313 "/>
<path style="fill:none;stroke-width:1.16455;stroke-linecap:butt;stroke-linejoin:miter;stroke:rgb(21.998596%,15.299988%,34.498596%);stroke-opacity:1;stroke-miterlimit:10;" d="M 1839.414063 1238.398438 C 1835.78125 1238.984375 1832.148438 1239.53125 1828.554688 1239.921875 C 1828.984375 1239.882813 1829.414063 1239.882813 1829.84375 1239.84375 C 1833.007813 1239.453125 1836.210938 1238.945313 1839.414063 1238.398438 Z M 2027.578125 968.046875 C 2023.242188 979.21875 1998.828125 1037.265625 1941.875 1081.09375 C 1908.984375 1106.40625 1864.257813 1124.0625 1819.140625 1129.492188 C 1811.367188 1130.390625 1803.632813 1130.976563 1796.132813 1131.132813 C 1727.1875 1132.617188 1651.171875 1087.109375 1642.695313 1081.914063 C 1632.734375 1075.78125 1625.117188 1067.148438 1620.234375 1057.304688 C 1618.398438 1055.15625 1616.757813 1052.890625 1615.273438 1050.585938 C 1598.398438 1036.171875 1590.898438 1013.671875 1595.390625 992.265625 C 1585.234375 982.1875 1575.273438 970.976563 1566.054688 958.828125 C 1549.84375 971.835938 1530.234375 980.664063 1508.398438 983.28125 L 1507.460938 983.398438 C 1494.648438 984.921875 1481.914063 984.140625 1469.648438 981.40625 L 1476.210938 1078.828125 C 1477.34375 1095.390625 1471.5625 1111.679688 1460.3125 1123.90625 C 1450.507813 1134.492188 1437.304688 1141.210938 1423.125 1142.890625 C 1420.976563 1143.164063 1418.828125 1143.320313 1416.640625 1143.320313 L 1280.585938 1145.039063 C 1264.53125 1145.234375 1249.0625 1139.023438 1237.578125 1127.851563 C 1232.65625 1123.046875 1228.632813 1117.460938 1225.625 1111.445313 C 1223.828125 1109.296875 1222.1875 1107.03125 1220.664063 1104.6875 C 1219.6875 1103.867188 1218.710938 1102.96875 1217.773438 1102.03125 C 1206.289063 1090.820313 1199.726563 1075.507813 1199.492188 1059.492188 L 1196.367188 790.46875 L 1175.742188 788.789063 L 1154.492188 1076.484375 C 1153.28125 1093.046875 1145.3125 1108.398438 1132.421875 1118.867188 C 1123.476563 1126.171875 1112.695313 1130.703125 1101.40625 1132.03125 C 1096.484375 1132.65625 1091.445313 1132.65625 1086.445313 1131.992188 L 941.484375 1113.242188 C 929.0625 1111.640625 918.085938 1106.328125 909.375 1098.671875 C 905.625 1099.882813 901.796875 1100.859375 897.890625 1101.328125 C 891.953125 1102.03125 885.898438 1101.875 879.882813 1100.78125 C 874.21875 1099.726563 740.703125 1075.507813 697.96875 1066.367188 C 653.398438 1056.875 535.429688 1027.578125 530.429688 1026.328125 C 525.039063 1025 519.921875 1022.890625 515.195313 1020.195313 C 510.898438 1024.296875 505.9375 1027.734375 500.46875 1030.429688 C 494.296875 1033.476563 487.65625 1035.429688 480.9375 1036.25 C 471.953125 1037.34375 462.773438 1036.40625 454.0625 1033.398438 L 263.4375 967.773438 C 248.398438 962.578125 236.015625 951.679688 228.984375 937.460938 C 227.148438 935.351563 225.507813 933.085938 224.023438 930.742188 C 217.226563 924.960938 211.796875 917.695313 208.085938 909.414063 C 201.25 894.101563 201.09375 876.601563 207.65625 861.171875 L 328.164063 577.226563 C 321.953125 580.3125 315.3125 582.265625 308.515625 583.085938 C 294.53125 584.765625 279.921875 581.601563 267.460938 573.164063 L 113.164063 468.945313 C 104.492188 463.085938 97.617188 455.117188 93.046875 445.898438 C 91.210938 443.75 89.570313 441.484375 88.046875 439.101563 C 76.757813 429.53125 69.335938 416.132813 67.304688 401.328125 C 64.960938 384.335938 69.921875 367.148438 80.976563 354.023438 C 85.546875 348.632813 127.070313 300.78125 187.539063 274.21875 C 212.265625 263.398438 240.625 256.015625 271.953125 252.265625 C 302.851563 248.554688 335.585938 248.75 359.53125 252.8125 C 401.757813 260.039063 451.757813 270.9375 510.9375 309.140625 C 540.234375 328.046875 566.40625 351.171875 586.875 376.171875 C 596.445313 386.484375 604.960938 397.070313 612.1875 407.65625 C 614.570313 411.132813 616.5625 414.335938 618.320313 417.1875 C 619.023438 418.125 619.726563 419.101563 620.351563 420.039063 C 622.890625 423.75 625.15625 427.460938 627.460938 431.171875 C 634.492188 427.148438 642.226563 424.414063 650.390625 423.4375 C 658.085938 422.5 666.09375 423.085938 674.023438 425.3125 L 952.8125 504.101563 C 960.3125 506.25 967.109375 509.726563 972.96875 514.21875 C 973.4375 514.140625 973.867188 514.023438 974.296875 513.945313 C 979.765625 513.320313 985.351563 513.398438 990.898438 514.257813 L 1231.40625 551.992188 C 1235.742188 552.695313 1239.921875 553.828125 1243.867188 555.351563 C 1245.117188 555.15625 1246.289063 554.765625 1247.539063 554.609375 C 1250.742188 554.21875 1253.945313 554.101563 1257.1875 554.21875 L 1483.164063 563.398438 C 1503.515625 564.179688 1521.40625 575.078125 1531.757813 591.328125 C 1537.890625 596.601563 1542.96875 603.085938 1546.601563 610.429688 C 1546.640625 610.46875 1546.679688 610.546875 1546.71875 610.585938 C 1580.234375 568.125 1622.851563 541.679688 1635.742188 535.625 C 1642.03125 532.65625 1675.546875 517.734375 1719.765625 512.421875 C 1746.953125 509.140625 1772.773438 510.195313 1796.523438 515.546875 C 1866.914063 531.40625 1928.476563 584.726563 1944.492188 602.1875 C 1946.835938 604.726563 1949.492188 607.890625 1952.460938 611.796875 C 1953.90625 613.203125 1955.15625 614.492188 1956.25 615.703125 C 1963.28125 623.398438 1972.695313 636.289063 1982.148438 651.171875 C 1997.578125 673.632813 2032.890625 730.3125 2045.078125 794.296875 C 2060.664063 876.132813 2033.203125 953.398438 2027.578125 968.046875 Z M 2027.578125 968.046875 " transform="matrix(0.1,0,0,-0.1,0,155)"/>
<path style=" stroke:none;fill-rule:nonzero;fill:rgb(99.598694%,75.299072%,14.498901%);fill-opacity:1;" d="M 26.253906 66.992188 L 45.3125 60.429688 L 56.191406 93.042969 C 56.191406 93.042969 57.132813 95.617188 57.605469 98.300781 C 57.984375 100.441406 57.917969 102.683594 57.929688 103.527344 C 57.980469 106.417969 57.316406 109.222656 54.980469 112.640625 C 53.539063 114.75 51.148438 117.273438 47.738281 119.480469 C 42.566406 122.816406 38.222656 123.652344 34.859375 124.230469 C 32.042969 124.710938 25.890625 124.609375 21.109375 122.515625 C 16.167969 120.34375 12.644531 116.167969 12.644531 116.167969 L 28.074219 105.746094 C 28.074219 105.746094 34.816406 113.753906 39.617188 108.65625 C 43.515625 104.511719 39.53125 98.273438 39.53125 98.273438 L 26.253906 66.992188 "/>
<path style=" stroke:none;fill-rule:nonzero;fill:rgb(99.598694%,75.299072%,14.498901%);fill-opacity:1;" d="M 52.441406 61.285156 C 52.441406 61.285156 64.589844 58.265625 68.996094 57.328125 C 73.230469 56.425781 87.011719 53.925781 87.011719 53.925781 L 88.492188 64.570313 L 69.785156 68.601563 L 71.421875 75.171875 L 88.175781 71.953125 L 89.515625 82.199219 L 74.195313 86.164063 L 75.101563 92.078125 L 91.78125 88.65625 L 93.554688 99.242188 L 65.683594 107.121094 L 52.441406 61.285156 "/>
<path style=" stroke:none;fill-rule:nonzero;fill:rgb(99.598694%,75.299072%,14.498901%);fill-opacity:1;" d="M 92.863281 52.722656 L 107.359375 50.847656 L 109.933594 85.699219 L 122.007813 84.707031 L 122.125 94.300781 L 98.074219 98.074219 L 92.863281 52.722656 "/>
<path style=" stroke:none;fill-rule:nonzero;fill:rgb(99.598694%,75.299072%,14.498901%);fill-opacity:1;" d="M 125.921875 49.59375 L 139.53125 49.765625 L 137.257813 83.429688 L 149.140625 83.558594 L 147.996094 93.09375 L 125.398438 94.007813 L 125.921875 49.59375 "/>
<path style=" stroke:none;fill-rule:nonzero;fill:rgb(99.598694%,75.299072%,14.498901%);fill-opacity:1;" d="M 165.382813 55.011719 C 165.382813 55.011719 172.109375 50.871094 177.425781 50.984375 C 181.136719 51.0625 185.472656 52.449219 188.441406 54.734375 C 192.378906 57.765625 194.476563 61.914063 195.054688 63.425781 C 195.773438 65.277344 197.660156 71.4375 196.507813 77.492188 C 195.3125 83.773438 191.042969 89.941406 189.917969 91.164063 C 188.882813 92.292969 183.742188 96.78125 178.246094 98.019531 C 173.09375 99.175781 167.585938 97.148438 166.066406 96.433594 C 164.761719 95.824219 159.34375 92.128906 157.191406 87.140625 C 155.945313 84.246094 154.351563 77.210938 156.199219 71.652344 C 158.308594 65.304688 164.148438 60.5 166.964844 59.242188 C 172.578125 56.742188 178.558594 59.398438 178.558594 59.398438 C 178.558594 59.398438 166.964844 59.242188 164.625 69.621094 C 164.226563 71.386719 163.523438 78.457031 167.023438 82.515625 C 167.789063 83.402344 171.414063 86.640625 175.710938 86.269531 C 180.5625 85.855469 183.671875 82.007813 185.003906 80.203125 C 187.628906 76.644531 187.910156 71.09375 187.90625 70.277344 C 187.898438 68.652344 186.683594 62.671875 183.960938 59.144531 C 182.625 57.40625 179.484375 54.160156 175.640625 53.578125 C 170.863281 52.851563 165.382813 55.011719 165.382813 55.011719 "/>
<path style=" stroke:none;fill-rule:nonzero;fill:rgb(99.598694%,75.299072%,14.498901%);fill-opacity:1;" d="M 152.996094 72.554688 C 152.589844 75.945313 149.71875 78.394531 146.585938 78.015625 L 146.492188 78.003906 C 143.355469 77.628906 141.144531 74.574219 141.554688 71.179688 C 141.960938 67.785156 144.832031 65.339844 147.96875 65.714844 L 148.0625 65.726563 C 151.195313 66.105469 153.40625 69.160156 152.996094 72.554688 "/>
<path style=" stroke:none;fill-rule:nonzero;fill:rgb(100%,100%,100%);fill-opacity:1;" d="M 27.421875 65.644531 L 46.480469 59.085938 L 57.359375 91.699219 C 57.359375 91.699219 58.300781 94.273438 58.773438 96.957031 C 59.152344 99.09375 59.085938 101.335938 59.097656 102.183594 C 59.148438 105.074219 58.480469 107.878906 56.148438 111.296875 C 54.710938 113.402344 52.316406 115.929688 48.90625 118.132813 C 43.734375 121.472656 39.394531 122.308594 36.03125 122.882813 C 33.210938 123.363281 27.058594 123.265625 22.277344 121.167969 C 17.335938 119 13.808594 114.820313 13.808594 114.820313 L 29.242188 104.402344 C 29.242188 104.402344 35.984375 112.410156 40.785156 107.308594 C 44.683594 103.164063 40.699219 96.925781 40.699219 96.925781 L 27.421875 65.644531 "/>
<path style=" stroke:none;fill-rule:nonzero;fill:rgb(100%,100%,100%);fill-opacity:1;" d="M 53.609375 59.941406 C 53.609375 59.941406 65.757813 56.921875 70.167969 55.980469 C 74.398438 55.082031 88.179688 52.578125 88.179688 52.578125 L 89.660156 63.222656 L 70.953125 67.257813 L 72.589844 73.828125 L 89.34375 70.605469 L 90.679688 80.851563 L 75.363281 84.820313 L 76.269531 90.730469 L 92.953125 87.3125 L 94.726563 97.898438 L 66.851563 105.777344 L 53.609375 59.941406 "/>
<path style=" stroke:none;fill-rule:nonzero;fill:rgb(100%,100%,100%);fill-opacity:1;" d="M 94.03125 51.378906 L 108.53125 49.503906 L 111.101563 84.351563 L 123.179688 83.359375 L 123.296875 92.953125 L 99.242188 96.726563 L 94.03125 51.378906 "/>
<path style=" stroke:none;fill-rule:nonzero;fill:rgb(100%,100%,100%);fill-opacity:1;" d="M 127.089844 48.246094 L 140.699219 48.417969 L 138.429688 82.085938 L 150.308594 82.210938 L 149.164063 91.746094 L 126.566406 92.660156 L 127.089844 48.246094 "/>
<path style=" stroke:none;fill-rule:nonzero;fill:rgb(100%,100%,100%);fill-opacity:1;" d="M 166.550781 53.664063 C 166.550781 53.664063 173.277344 49.523438 178.59375 49.640625 C 182.304688 49.71875 186.640625 51.101563 189.609375 53.390625 C 193.546875 56.417969 195.644531 60.570313 196.226563 62.082031 C 196.941406 63.929688 198.828125 70.09375 197.679688 76.148438 C 196.480469 82.425781 192.210938 88.59375 191.085938 89.820313 C 190.050781 90.949219 184.910156 95.433594 179.414063 96.671875 C 174.261719 97.832031 168.753906 95.800781 167.234375 95.089844 C 165.929688 94.476563 160.511719 90.785156 158.363281 85.792969 C 157.117188 82.902344 155.519531 75.863281 157.367188 70.308594 C 159.476563 63.960938 165.316406 59.152344 168.132813 57.898438 C 173.746094 55.398438 179.726563 58.050781 179.726563 58.050781 C 179.726563 58.050781 168.132813 57.898438 165.796875 68.277344 C 165.398438 70.039063 164.691406 77.109375 168.195313 81.171875 C 168.960938 82.054688 172.582031 85.292969 176.878906 84.925781 C 181.734375 84.507813 184.839844 80.660156 186.171875 78.855469 C 188.796875 75.300781 189.082031 69.746094 189.074219 68.929688 C 189.066406 67.304688 187.851563 61.328125 185.132813 57.796875 C 183.792969 56.058594 180.652344 52.816406 176.808594 52.230469 C 172.03125 51.503906 166.550781 53.664063 166.550781 53.664063 "/>
<path style=" stroke:none;fill-rule:nonzero;fill:rgb(100%,100%,100%);fill-opacity:1;" d="M 154.164063 71.207031 C 153.761719 74.601563 150.890625 77.046875 147.753906 76.667969 L 147.660156 76.660156 C 144.523438 76.28125 142.316406 73.226563 142.722656 69.835938 C 143.132813 66.441406 146 63.996094 149.136719 64.371094 L 149.230469 64.382813 C 152.363281 64.757813 154.574219 67.8125 154.164063 71.207031 "/>
<path style=" stroke:none;fill-rule:nonzero;fill:rgb(93.299866%,14.898682%,16.099548%);fill-opacity:1;" d="M 28.238281 64.410156 L 47.296875 57.851563 L 58.171875 90.464844 C 58.171875 90.464844 59.113281 93.035156 59.589844 95.722656 C 59.964844 97.859375 59.898438 100.105469 59.914063 100.945313 C 59.960938 103.839844 59.296875 106.644531 56.964844 110.0625 C 55.523438 112.167969 53.128906 114.695313 49.71875 116.898438 C 44.546875 120.238281 40.207031 121.074219 36.84375 121.648438 C 34.023438 122.128906 27.871094 122.03125 23.09375 119.933594 C 18.152344 117.765625 14.625 113.589844 14.625 113.589844 L 30.054688 103.167969 C 30.054688 103.167969 36.800781 111.175781 41.597656 106.074219 C 45.496094 101.929688 41.511719 95.695313 41.511719 95.695313 L 28.238281 64.410156 "/>
<path style=" stroke:none;fill-rule:nonzero;fill:rgb(93.299866%,14.898682%,16.099548%);fill-opacity:1;" d="M 54.425781 58.707031 C 54.425781 58.707031 66.570313 55.6875 70.980469 54.746094 C 75.214844 53.847656 88.992188 51.34375 88.992188 51.34375 L 90.472656 61.988281 L 71.765625 66.023438 L 73.40625 72.59375 L 90.15625 69.371094 L 91.496094 79.617188 L 76.175781 83.585938 L 77.082031 89.496094 L 93.765625 86.078125 L 95.539063 96.660156 L 67.664063 104.542969 L 54.425781 58.707031 "/>
<path style=" stroke:none;fill-rule:nonzero;fill:rgb(93.299866%,14.898682%,16.099548%);fill-opacity:1;" d="M 94.84375 50.144531 L 109.34375 48.269531 L 111.914063 83.117188 L 123.992188 82.125 L 124.109375 91.71875 L 100.058594 95.492188 L 94.84375 50.144531 "/>
<path style=" stroke:none;fill-rule:nonzero;fill:rgb(93.299866%,14.898682%,16.099548%);fill-opacity:1;" d="M 127.902344 47.015625 L 141.511719 47.183594 L 139.242188 80.847656 L 151.121094 80.976563 L 149.976563 90.511719 L 127.382813 91.425781 L 127.902344 47.015625 "/>
<path style=" stroke:none;fill-rule:nonzero;fill:rgb(93.299866%,14.898682%,16.099548%);fill-opacity:1;" d="M 167.363281 52.429688 C 167.363281 52.429688 174.09375 48.289063 179.40625 48.402344 C 183.117188 48.484375 187.453125 49.867188 190.421875 52.152344 C 194.359375 55.183594 196.457031 59.335938 197.039063 60.847656 C 197.753906 62.695313 199.644531 68.859375 198.488281 74.914063 C 197.296875 81.191406 193.023438 87.359375 191.898438 88.585938 C 190.863281 89.714844 185.722656 94.203125 180.230469 95.4375 C 175.074219 96.597656 169.566406 94.566406 168.050781 93.855469 C 166.746094 93.242188 161.324219 89.546875 159.175781 84.558594 C 157.929688 81.664063 156.332031 74.632813 158.179688 69.074219 C 160.289063 62.726563 166.128906 57.917969 168.949219 56.664063 C 174.558594 54.164063 180.539063 56.820313 180.539063 56.820313 C 180.539063 56.820313 168.949219 56.664063 166.609375 67.039063 C 166.210938 68.804688 165.503906 75.878906 169.007813 79.9375 C 169.773438 80.824219 173.394531 84.058594 177.691406 83.691406 C 182.546875 83.277344 185.652344 79.425781 186.984375 77.621094 C 189.609375 74.066406 189.894531 68.511719 189.890625 67.695313 C 189.882813 66.070313 188.664063 60.09375 185.945313 56.566406 C 184.605469 54.824219 181.464844 51.582031 177.621094 50.996094 C 172.847656 50.269531 167.363281 52.429688 167.363281 52.429688 "/>
<path style=" stroke:none;fill-rule:nonzero;fill:rgb(93.299866%,14.898682%,16.099548%);fill-opacity:1;" d="M 154.980469 69.972656 C 154.570313 73.367188 151.703125 75.8125 148.566406 75.433594 L 148.472656 75.421875 C 145.339844 75.046875 143.128906 71.992188 143.535156 68.597656 C 143.941406 65.207031 146.816406 62.761719 149.949219 63.136719 L 150.042969 63.148438 C 153.175781 63.523438 155.386719 66.578125 154.980469 69.972656 "/>
</g>
</svg>
